<svg xmlns="http://www.w3.org/2000/svg" viewBox="0 0 210 192.5" height="{{ include.height }}" width="{{ include.width }}">
  <g transform="translate(0 -35) scale(66.14173)">
    <path fill="{{ include.fill }}" d="M2.963.794c-.137-.167-.33-.252-.582-.265A.75.75 0 001.8.794c-.135.153-.206.243-.212.264-.005-.02-.074-.11-.211-.264A.73.73 0 00.794.529C.542.542.347.63.212.794A.835.835 0 000 1.323c0 .137.024.402.177.706.154.305.62.778 1.41 1.41C2.377 2.808 2.85 2.337 3 2.03c.151-.307.175-.574.175-.706a.86.86 0 00-.212-.535z"/>
  </g>
</svg>